<?xml version="1.0" encoding="UTF-8" standalone="no"?>
<svg
   width="358.5791"
   height="292.63672"
   viewBox="0 0 358.5791 292.63672"
   font-family="Arial, sans-serif"
   version="1.1"
   id="svg24"
   sodipodi:docname="radar_plots.svg"
   xml:space="preserve"
   inkscape:version="1.3 (0e150ed6c4, 2023-07-21)"
   xmlns:inkscape="http://www.inkscape.org/namespaces/inkscape"
   xmlns:sodipodi="http://sodipodi.sourceforge.net/DTD/sodipodi-0.dtd"
   xmlns="http://www.w3.org/2000/svg"
   xmlns:svg="http://www.w3.org/2000/svg"><sodipodi:namedview
     id="namedview24"
     pagecolor="#ffffff"
     bordercolor="#000000"
     borderopacity="0.25"
     inkscape:showpageshadow="2"
     inkscape:pageopacity="0.0"
     inkscape:pagecheckerboard="0"
     inkscape:deskcolor="#d1d1d1"
     inkscape:zoom="0.49968879"
     inkscape:cx="1145.7131"
     inkscape:cy="711.44281"
     inkscape:window-width="1920"
     inkscape:window-height="991"
     inkscape:window-x="-9"
     inkscape:window-y="-9"
     inkscape:window-maximized="1"
     inkscape:current-layer="svg24" /><defs
     id="defs15"><g
       id="radar-grid"><polygon
         points="17.32,10 0,20 -17.32,10 -17.32,-10 0,-20 17.32,-10 "
         fill="none"
         stroke="#dddddd"
         stroke-width="1"
         id="polygon1" /><polygon
         points="34.64,20 0,40 -34.64,20 -34.64,-20 0,-40 34.64,-20 "
         fill="none"
         stroke="#dddddd"
         stroke-width="1"
         id="polygon2" /><polygon
         points="51.96,30 0,60 -51.96,30 -51.96,-30 0,-60 51.96,-30 "
         fill="none"
         stroke="#dddddd"
         stroke-width="1"
         id="polygon3" /><polygon
         points="69.28,40 0,80 -69.28,40 -69.28,-40 0,-80 69.28,-40 "
         fill="none"
         stroke="#dddddd"
         stroke-width="1"
         id="polygon4" /><polygon
         points="86.6,50 0,100 -86.6,50 -86.6,-50 0,-100 86.6,-50 "
         fill="none"
         stroke="#cccccc"
         stroke-width="1.5"
         id="polygon5" /><line
         x1="0"
         y1="0"
         x2="0"
         y2="-100"
         stroke="#bbbbbb"
         stroke-width="1"
         id="line5" /><line
         x1="0"
         y1="0"
         x2="86.599998"
         y2="-50"
         stroke="#bbbbbb"
         stroke-width="1"
         id="line6" /><line
         x1="0"
         y1="0"
         x2="86.599998"
         y2="50"
         stroke="#bbbbbb"
         stroke-width="1"
         id="line7" /><line
         x1="0"
         y1="0"
         x2="0"
         y2="100"
         stroke="#bbbbbb"
         stroke-width="1"
         id="line8" /><line
         x1="0"
         y1="0"
         x2="-86.599998"
         y2="50"
         stroke="#bbbbbb"
         stroke-width="1"
         id="line9" /><line
         x1="0"
         y1="0"
         x2="-86.599998"
         y2="-50"
         stroke="#bbbbbb"
         stroke-width="1"
         id="line10" /></g><g
       id="axis-labels"
       font-size="14px"
       fill="#333333"
       text-anchor="middle"><text
         x="0"
         y="-115"
         id="text10">Sustainability</text><text
         x="105"
         y="-50"
         text-anchor="start"
         id="text11">Energy density</text><text
         x="105"
         y="60"
         text-anchor="start"
         id="text12">Power density</text><text
         x="0"
         y="125"
         id="text13">Low-cost</text><text
         x="-105"
         y="60"
         text-anchor="end"
         id="text14">Safety</text><text
         x="-105"
         y="-50"
         text-anchor="end"
         id="text15">Cycle life</text></g></defs><g
     id="g68"
     transform="translate(-438.9043,-82.527342)"><text
       x="440"
       y="100"
       font-size="24px"
       font-weight="bold"
       fill="#000000"
       id="text19">b)</text><text
       x="600"
       y="100"
       font-size="20px"
       font-weight="bold"
       fill="#2ecc71"
       text-anchor="middle"
       id="text20">SIBs</text><use
       href="#radar-grid"
       id="use20"
       transform="translate(600,250)" /><use
       href="#axis-labels"
       id="use21"
       transform="translate(600,250)" /><path
       id="polygon21"
       style="fill:#2ecc71;fill-opacity:0.5;stroke:#27ae60;stroke-width:2"
       d="M 556.46794,275.7458 548.04,220 600,151.74798 652.05545,220.4972 669.6437,289.50747 600,335 Z"
       sodipodi:nodetypes="ccccccc" /></g></svg>
